{
  "asset": {"version": "2.0", "generator": "CropForge test fixture"},
  "scene": 0,
  "scenes": [{"nodes": [0]}],
  "nodes": [{"mesh": 0}],
  "meshes": [{
    "name": "DummyPlant",
    "primitives": [{"attributes": {"POSITION": 0}, "indices": 1}]
  }],
  "accessors": [
    {
      "bufferView": 0, "componentType": 5126, "count": 8, "type": "VEC3",
      "max": [0.5, 1.0, 0.5], "min": [-0.5, 0.0, -0.5]
    },
    {
      "bufferView": 1, "componentType": 5123, "count": 36, "type": "SCALAR"
    }
  ],
  "bufferViews": [
    {"buffer": 0, "byteOffset": 0, "byteLength": 96},
    {"buffer": 0, "byteOffset": 96, "byteLength": 72}
  ],
  "buffers": [{"uri": "dummy_plant.bin", "byteLength": 168}]
}
