{"asset":{"version":"2.0","generator":"CropForge v0.9.5 asset generator"},"scene":0,"scenes":[{"nodes":[0]}],"nodes":[{"mesh":0,"name":"plant_stage_4"}],"meshes":[{"name":"plant_stage_4","primitives":[{"attributes":{"POSITION":0},"indices":3,"material":0,"targets":[{"POSITION":1},{"POSITION":2}]}],"extras":{"morphTargetNames":["stage_start","stage_end"]}}],"materials":[{"name":"plant_material_stage_4","pbrMetallicRoughness":{"baseColorFactor":[0.22,0.55,0.13,1.0],"metallicFactor":0.0,"roughnessFactor":0.65},"doubleSided":true}],"buffers":[{"uri":"data:application/octet-stream;base64,","byteLength":960},{"uri":"data:application/octet-stream;base64,","byteLength":960},{"uri":"data:application/octet-stream;base64,","byteLength":960},{"uri":"data:application/octet-stream;base64,","byteLength":240}],"bufferViews":[{"buffer":0,"byteOffset":0,"byteLength":960,"target":34962},{"buffer":1,"byteOffset":0,"byteLength":960,"target":34962},{"buffer":2,"byteOffset":0,"byteLength":960,"target":34962},{"buffer":3,"byteOffset":0,"byteLength":240,"target":34963}],"accessors":[{"bufferView":0,"componentType":5126,"count":80,"type":"VEC3","min":[-0.11,0.0,0.0],"max":[0.11,0.9,0.0]},{"bufferView":1,"componentType":5126,"count":80,"type":"VEC3"},{"bufferView":2,"componentType":5126,"count":80,"type":"VEC3"},{"bufferView":3,"componentType":5123,"count":120,"type":"SCALAR"}]}